<?xml version="1.0" encoding="UTF-8"?>
<svg version="1.1" viewBox="0 0 246.67 272.57" xmlns="http://www.w3.org/2000/svg" xmlnsCc="http://creativecommons.org/ns#" xmlnsDc="http://purl.org/dc/elements/1.1/" xmlnsRdf="http://www.w3.org/1999/02/22-rdf-syntax-ns#">
<g transform="translate(-247.92 -330.8)" fill="#3c9a50" stroke="#1c4d1d" strokeLinecap="round" strokeLinejoin="round" strokeWidth="10">
<path d="m277 456.36c8.3091-4.3029 22.812 1.7318 33-2.5 18.498-7.6837 41.253-35.566 49.618-42.47 15.01-12.39 28.86-17.61 37.38-34.03 4.3706-8.4232 10.034-28.923 19-38 2.0015-2.0261 6.6827-3.9173 9.5-3.5 7.0567 1.0451 11.159 5.8395 15.5 11.5 3.7296 4.8627 6.3704 10.883 6 17-1.3169 21.75-24.616 36.167-31 57-2.352 7.6754-6.6939 17.488-2 24 5.9372 8.2374 33.117 6.499 48 14 9.3469 4.7107 20.349 9.6233 25 19 3.703 7.4654 3.189 17.301 0 25-2.5256 6.0973-8.7813 7.7845-11 14-2.2524 6.31 1.8267 13.926-1 20-3.2376 6.9575-13.617 9.7007-18 16-3.1397 4.5127-1.4879 8.7706-5 13-5.6221 6.7703-13.756 5.7987-20 12-3.9149 3.8882-6.743 10.49-11 14-6.3621 5.2463-15.755 6.1374-24 6-9.7055-0.16171-15.327-4.1873-25-5-9.0236-0.75814-21.351 2.6812-30 0-21.446-6.6479-31.758-30.285-51-44-7.4534-5.3126-20.253 1.1855-27-5-11.981-10.985-12.22-29.897-10-46 2.2874-16.593 8.1263-34.298 23-42z" color="#000000"/>
<path d="m472 517.86s-28.514 6.7667-40.5 2.5c-15.511-5.5213-23.735-12.779-39.5-20.5-3.1469-1.5411-5.46-7.5955-3.5-10.5 5.1309-7.6035 16.863-11.694 26-12.5 11.839-1.0443 24.625 7.5217 33.5 10 2.7711 0.7738 9.5-1.5 9.5-1.5" color="#000000"/>
<path d="m454 551.36c0-0.34632-23.766 1.126-38-3.5-12.962-4.2129-20.471-11.096-43.5-21-9.724-4.182-3.4543-8.1341-2-11.5 3.0865-7.1435 18-16.5 18-16.5" color="#000000"/>
<path d="m431 577.36s-19.985-0.47071-28.5-5c-12.907-6.8652-28.261-12.859-41-19.5-3.5959-1.8745-3.1601-8.1143-2-12 1.6871-5.6508 12-13 12-13" color="#000000"/>
<path d="m396.36 597.86s-34.168-11.004-43.864-20c-2.5918-2.4047-0.61803-9.1459 0.5-12.5 1.7888-5.3666 10-10 10-10" color="#000000"/>
</g>
</svg>
